<svg height="512pt" viewBox="0 -61 512 512" width="512pt" xmlns="http://www.w3.org/2000/svg"><path d="m512 105c0-57.898438-47.101562-105-105-105h-347c-33.085938 0-60 26.914062-60 60 0 17.902344 7.882812 33.996094 20.355469 45-12.472657 11.003906-20.355469 27.097656-20.355469 45 0 24.832031 15.164062 46.191406 36.722656 55.300781-22.464844 19.269531-36.722656 47.847657-36.722656 79.699219 0 57.898438 47.101562 105 105 105h347c33.085938 0 60-26.914062 60-60 0-17.902344-7.882812-33.996094-20.355469-45 12.472657-11.003906 20.355469-27.097656 20.355469-45 0-24.832031-15.164062-46.191406-36.722656-55.300781 22.464844-19.269531 36.722656-47.847657 36.722656-79.699219zm-452 75c-16.542969 0-30-13.457031-30-30s13.457031-30 30-30h362v-30h-362c-16.542969 0-30-13.457031-30-30s13.457031-30 30-30h347c41.355469 0 75 33.644531 75 75s-33.644531 75-75 75c-22.457031 0-330.824219 0-347 0zm392 30c16.542969 0 30 13.457031 30 30s-13.457031 30-30 30h-362v30h362c16.542969 0 30 13.457031 30 30s-13.457031 30-30 30h-347c-41.355469 0-75-33.644531-75-75s33.644531-75 75-75zm0 0"/></svg>