<svg height="480pt" viewBox="0 0 480 480" width="480pt" xmlns="http://www.w3.org/2000/svg"><path d="m8 104h464v368h-464zm0 0" fill="#fdbd40"/><path d="m192 8h96v32h-96zm0 0" fill="#e9686a"/><path d="m48 416h-16v32h32v-16h-16zm0 0" fill="#fff"/><path d="m432 416v16h-16v16h32v-32zm0 0" fill="#fff"/><path d="m184 104h-176v-48h128zm0 0" fill="#e8a231"/><path d="m288 248v-176h-96v176h-72l120 112 120-112zm0 0" fill="#e9686a"/><path d="m192 0c-4.417969 0-8 3.582031-8 8v32c0 4.417969 3.582031 8 8 8h96c4.417969 0 8-3.582031 8-8v-32c0-4.417969-3.582031-8-8-8zm88 32h-80v-16h80zm0 0"/><path d="m48 416h-16v32h32v-16h-16zm0 0"/><path d="m448 448v-32h-16v16h-16v16zm0 0"/><path d="m472 96h-176v-24c0-4.417969-3.582031-8-8-8h-96c-4.417969 0-8 3.582031-8 8v20.6875l-42.34375-42.34375c-1.5-1.5-3.535156-2.34375-5.65625-2.34375h-128c-4.417969 0-8 3.582031-8 8v416c0 4.417969 3.582031 8 8 8h464c4.417969 0 8-3.582031 8-8v-368c0-4.417969-3.582031-8-8-8zm-272-16h80v160h-80zm139.703125 176-99.703125 93.054688-99.703125-93.054688zm-323.703125-192h116.6875l32 32h-148.6875zm448 400h-448v-352h168v128h-64c-3.285156-.003906-6.242188 2.007812-7.445312 5.0625-1.207032 3.058594-.421876 6.542969 1.980468 8.785156l120 112c3.074219 2.875 7.855469 2.875 10.929688 0l120-112c2.402344-2.242187 3.1875-5.726562 1.980468-8.785156-1.203124-3.054688-4.160156-5.066406-7.445312-5.0625h-64v-128h168zm0 0"/></svg>