<?xml version="1.0" encoding="iso-8859-1"?>
<!-- Generator: Adobe Illustrator 18.0.0, SVG Export Plug-In . SVG Version: 6.00 Build 0)  -->
<!DOCTYPE svg PUBLIC "-//W3C//DTD SVG 1.1//EN" "http://www.w3.org/Graphics/SVG/1.1/DTD/svg11.dtd">
<svg version="1.1" id="Capa_1" xmlns="http://www.w3.org/2000/svg" xmlns:xlink="http://www.w3.org/1999/xlink" x="0px" y="0px"
	 viewBox="0 0 428.979 428.979" style="enable-background:new 0 0 428.979 428.979;" xml:space="preserve">
<path d="M360.388,40.716h-42.365V7.5c0-2.455-1.201-4.753-3.215-6.156C313.534,0.457,310.524,0,310.524,0H118.46
	c0,0-3.01,0.457-4.285,1.344c-2.014,1.402-3.215,3.701-3.215,6.156v33.216H68.591c-4.142,0-7.5,3.358-7.5,7.5v373.263
	c0,4.142,3.358,7.5,7.5,7.5h291.797c4.142,0,7.5-3.358,7.5-7.5V48.216C367.888,44.074,364.531,40.716,360.388,40.716z
	 M214.492,35.069L160.304,15h108.375L214.492,35.069z M303.024,18.276v41.926l-53.625,32.771l-24.271-45.846L303.024,18.276z
	 M125.96,18.276l77.897,28.851l-24.271,45.847L125.96,60.202V18.276z M76.091,155.302h66.733v18.789H76.091V155.302z
	 M76.091,189.091h74.233c4.142,0,7.5-3.358,7.5-7.5v-33.789c0-4.142-3.358-7.5-7.5-7.5H76.091V55.716h34.869v8.692
	c0,2.613,1.36,5.037,3.589,6.399l64.021,39.124c1.188,0.727,2.543,1.101,3.911,1.101c0.664,0,1.331-0.088,1.983-0.267
	c1.996-0.547,3.676-1.895,4.645-3.724l17.882-33.778v340.716H76.091V189.091z M221.992,413.979V73.264l17.882,33.778
	c0.968,1.829,2.649,3.176,4.645,3.724c0.653,0.179,1.319,0.267,1.983,0.267c1.368,0,2.723-0.374,3.911-1.101l64.021-39.124
	c2.229-1.362,3.589-3.787,3.589-6.399v-8.692h34.865v84.585h-74.233c-4.142,0-7.5,3.358-7.5,7.5v33.789c0,4.142,3.358,7.5,7.5,7.5
	h74.233v224.889H221.992z M352.888,174.091h-66.733v-18.789h66.733V174.091z"/>
<g>
</g>
<g>
</g>
<g>
</g>
<g>
</g>
<g>
</g>
<g>
</g>
<g>
</g>
<g>
</g>
<g>
</g>
<g>
</g>
<g>
</g>
<g>
</g>
<g>
</g>
<g>
</g>
<g>
</g>
</svg>
