<svg class="lds-gear" width="200px"  height="200px"  xmlns="http://www.w3.org/2000/svg" xmlns:xlink="http://www.w3.org/1999/xlink" viewBox="0 0 100 100" preserveAspectRatio="xMidYMid" style="background: none;"><g transform="translate(50 50)">
<g transform="rotate(131.724)">
<animateTransform attributeName="transform" type="rotate" values="0;360" keyTimes="0;1" dur="8.7s" repeatCount="indefinite"></animateTransform><path d="M14.79019945774904 -2.5 L19.79019945774904 -2.5 L19.79019945774904 2.5 L14.79019945774904 2.5 A15 15 0 0 1 14.058688457449499 5.230036219413423 L14.058688457449499 5.230036219413423 L18.388815476371693 7.730036219413423 L15.888815476371693 12.060163238335615 L11.558688457449499 9.560163238335615 A15 15 0 0 1 9.560163238335619 11.558688457449497 L9.560163238335619 11.558688457449497 L12.060163238335619 15.88881547637169 L7.730036219413426 18.38881547637169 L5.230036219413425 14.058688457449499 A15 15 0 0 1 2.5000000000000004 14.79019945774904 L2.5000000000000004 14.79019945774904 L2.500000000000001 19.79019945774904 L-2.4999999999999982 19.79019945774904 L-2.4999999999999987 14.79019945774904 A15 15 0 0 1 -5.23003621941342 14.058688457449499 L-5.23003621941342 14.058688457449499 L-7.730036219413419 18.388815476371693 L-12.060163238335612 15.888815476371693 L-9.560163238335614 11.5586884574495 A15 15 0 0 1 -11.558688457449495 9.560163238335623 L-11.558688457449495 9.560163238335623 L-15.888815476371686 12.060163238335624 L-18.38881547637169 7.7300362194134316 L-14.058688457449497 5.23003621941343 A15 15 0 0 1 -14.79019945774904 2.500000000000001 L-14.79019945774904 2.500000000000001 L-19.79019945774904 2.5000000000000013 L-19.79019945774904 -2.4999999999999973 L-14.79019945774904 -2.499999999999998 A15 15 0 0 1 -14.058688457449499 -5.230036219413419 L-14.058688457449499 -5.230036219413419 L-18.388815476371693 -7.730036219413418 L-15.888815476371697 -12.060163238335612 L-11.558688457449502 -9.560163238335614 A15 15 0 0 1 -9.560163238335626 -11.55868845744949 L-9.560163238335626 -11.55868845744949 L-12.060163238335628 -15.888815476371683 L-7.730036219413426 -18.38881547637169 L-5.2300362194134244 -14.058688457449499 A15 15 0 0 1 -2.5000000000000084 -14.790199457749038 L-2.5000000000000084 -14.790199457749038 L-2.5000000000000093 -19.79019945774904 L2.500000000000002 -19.79019945774904 L2.500000000000003 -14.79019945774904 A15 15 0 0 1 5.230036219413406 -14.058688457449504 L5.230036219413406 -14.058688457449504 L7.730036219413402 -18.3888154763717 L12.060163238335608 -15.888815476371697 L9.560163238335612 -11.558688457449502 A15 15 0 0 1 11.558688457449488 -9.560163238335626 L11.558688457449488 -9.560163238335626 L15.88881547637168 -12.060163238335628 L18.38881547637169 -7.730036219413427 L14.058688457449499 -5.230036219413425 A15 15 0 0 1 14.790199457749038 -2.5000000000000098 M0 -10A10 10 0 1 0 0 10 A10 10 0 1 0 0 -10" fill="#f3b049"></path></g></g></svg>